<svg width="40" height="40" viewBox="0 0 40 40" fill="none" xmlns="http://www.w3.org/2000/svg">
<rect width="40" height="40" rx="6" fill="#0E0E0F"/>
<path d="M14.2813 13.2187C13.9876 12.9281 13.5126 12.9281 13.2188 13.2187C12.9251 13.5093 12.9282 13.9875 13.2188 14.2812L18.9376 20L13.2188 25.7187C12.9251 26.0125 12.9251 26.4875 13.2188 26.7781C13.5126 27.0687 13.9876 27.0718 14.2782 26.7781L19.997 21.0593L25.7188 26.7812C26.0126 27.075 26.4876 27.075 26.7782 26.7812C27.0688 26.4875 27.072 26.0125 26.7782 25.7218L21.0595 20.0031L26.7813 14.2812C27.0751 13.9875 27.0751 13.5125 26.7813 13.2218C26.4876 12.9312 26.0126 12.9281 25.722 13.2218L20.0032 18.9406L14.2813 13.2187Z" fill="white"/>
</svg>
